<?xml version="1.0" encoding="UTF-8"?>
<svg width="150px" height="34px" viewBox="0 0 150 34" version="1.1" xmlns="http://www.w3.org/2000/svg" xmlns:xlink="http://www.w3.org/1999/xlink">
    <!-- Generator: Sketch 46.1 (44463) - http://www.bohemiancoding.com/sketch -->
    <title>Group 2</title>
    <desc>Created with Sketch.</desc>
    <defs></defs>
    <g id="oneragtime" stroke="none" stroke-width="1" fill="none" fill-rule="evenodd">
        <g id="Desktop-HD-oneragtime" transform="translate(-36.000000, -28.000000)" fill="#bd542e">
            <g id="Group-2" transform="translate(36.000000, 28.000000)">
                <g id="Page-1">
                    <polygon id="Fill-1" points="54.6395133 17.4764061 50.2926106 22.0763919 50.2926106 29.9876863 46.4899558 29.9876863 46.4899558 4.22803485 50.2926106 4.22803485 50.2926106 17.1085327 62.2452655 4.22803485 66.9527876 4.22803485 57.5364159 14.3488101 67.3156195 29.9876863 62.9704867 29.9876863 55.0014602 17.4764061"></polygon>
                    <g id="Group-17" transform="translate(0.000000, 0.161667)">
                        <path d="M80.3542478,26.36317 C85.069292,26.36317 89.1321239,22.2336679 89.1321239,16.946776 C89.1321239,11.6598841 85.069292,7.52993385 80.3542478,7.52993385 C75.6383186,7.52993385 71.5746018,11.6598841 71.5746018,16.946776 C71.5746018,22.2336679 75.6383186,26.36317 80.3542478,26.36317 M80.3542478,30.9304459 C72.9290265,30.9304459 66.7723894,24.6743578 66.7723894,16.946776 C66.7723894,9.21919417 72.9290265,2.96220982 80.3542478,2.96220982 C87.7776991,2.96220982 93.9343363,9.21919417 93.9343363,16.946776 C93.9343363,24.6743578 87.7776991,30.9304459 80.3542478,30.9304459" id="Fill-2"></path>
                        <path d="M107.038584,8.97888905 L103.348319,8.97888905 L103.348319,24.914394 L107.038584,24.914394 C111.958496,24.914394 115.187257,21.6335548 115.187257,16.9466415 C115.187257,12.2597283 111.958496,8.97888905 107.038584,8.97888905 M106.642124,29.8262432 L98.4925664,29.8262432 L98.4925664,4.06614367 L106.642124,4.06614367 C114.608938,4.06614367 120.042566,9.58603698 120.042566,16.9466415 C120.042566,24.3059018 114.608938,29.8262432 106.642124,29.8262432" id="Fill-4"></path>
                        <path d="M136.157434,24.5929865 C139.984867,24.5929865 143.28531,21.2391102 143.28531,16.9474033 C143.28531,12.653904 139.984867,9.30047582 136.157434,9.30047582 C132.329115,9.30047582 129.027788,12.653904 129.027788,16.9474033 C129.027788,21.2391102 132.329115,24.5929865 136.157434,24.5929865 M136.157434,30.929729 C128.732212,30.929729 122.575575,24.674537 122.575575,16.9474033 C122.575575,9.21847724 128.732212,2.96238905 136.157434,2.96238905 C143.582655,2.96238905 149.739292,9.21847724 149.739292,16.9474033 C149.739292,24.674537 143.582655,30.929729 136.157434,30.929729" id="Fill-6"></path>
                        <polygon id="Fill-8" points="0 0.28636771 0 33.6060192 9.23495575 33.6060192 9.23495575 29.9689566 3.9579646 29.9689566 3.9579646 3.92477454 9.23495575 3.92477454 9.23495575 0.28636771"></polygon>
                        <path d="M19.0325664,11.7010626 C19.0325664,12.9476202 18.4847788,13.9853727 17.4622124,14.5943129 L17.4622124,14.5987937 C16.8347788,14.9823499 16.0188496,15.1974282 15.0476106,15.1974282 L7.98699115,15.1974282 L7.98699115,8.38930583 L15.0476106,8.38930583 C15.7130973,8.38930583 16.300708,8.49101991 16.81,8.68100569 C18.2427434,9.18688762 19.0325664,10.342037 19.0325664,11.7010626" id="Fill-11"></path>
                        <path d="M19.0325664,22.0077461 C19.0325664,23.2538556 18.4847788,24.2925043 17.4622124,24.9001003 L17.4622124,24.9054772 C16.8347788,25.2881373 16.0188496,25.5032155 15.0476106,25.5032155 L7.98699115,25.5032155 L7.98699115,18.6950932 L15.0476106,18.6950932 C15.7130973,18.6950932 16.300708,18.7981515 16.81,18.9872411 C18.2427434,19.493123 19.0325664,20.6478243 19.0325664,22.0077461" id="Fill-13"></path>
                        <path d="M42.0440265,7.5611202 L42.0440265,4.06609886 L21.3050885,4.06609886 L21.3050885,5.63437767 C23.3980088,7.036867 24.6103982,9.26875178 24.6103982,11.7466323 C24.6103982,15.8998826 21.3311947,16.9398755 21.3311947,16.9398755 L21.3311947,16.9577987 C21.3311947,16.9577987 24.6103982,17.9924147 24.6103982,22.1465612 C24.6103982,24.6239936 23.3980088,26.8558784 21.3050885,28.2579196 L21.3050885,29.8261984 L42.0440265,29.8261984 L42.0440265,26.3316252 L27.1457965,26.3316252 L27.1457965,18.6022511 L38.9511062,18.6022511 L38.9511062,15.1072297 L27.1457965,15.1072297 L27.1457965,7.5611202 L42.0440265,7.5611202 Z" id="Fill-15"></path>
                    </g>
                </g>
            </g>
        </g>
    </g>
</svg>